<?xml version="1.0" encoding="UTF-8" standalone="no"?> <!-- Created with Vectornator for iOS (http://vectornator.io/) --><!DOCTYPE svg PUBLIC "-//W3C//DTD SVG 1.1//EN" "http://www.w3.org/Graphics/SVG/1.1/DTD/svg11.dtd">
<svg style="fill-rule:evenodd;clip-rule:evenodd;stroke-linecap:round;stroke-linejoin:round;" xmlns:vectornator="http://vectornator.io" xmlns:xlink="http://www.w3.org/1999/xlink" xmlns="http://www.w3.org/2000/svg" xml:space="preserve" version="1.1" viewBox="0 0 2000 2000">
<metadata>
<vectornator:setting key="DynamicGuides" value="1"/>
<vectornator:setting key="Units" value="Points"/>
<vectornator:setting key="GuidesVisible" value="1"/>
<vectornator:setting key="RulersVisible" value="1"/>
<vectornator:setting key="SnapToGuides" value="1"/>
<vectornator:setting key="GridSpacing" value="36"/>
</metadata>
<defs/>
<g id="Untitled" vectornator:layerName="Untitled">
<g opacity="1">
<path d="M753.56+613.42L753.56+1038.61L999.93+1140.59L999.93+715.396L753.56+613.42ZM811.55+752.647C808.58+755.856+804.32+756.763+800.57+755.478L805.23+764.196L787.13+764.196L791.79+755.478C788.03+756.763+783.77+755.856+780.8+752.647C776.56+748.055+776.56+740.633+780.8+736.053L796.17+719.447L811.55+736.053C815.8+740.633+815.8+748.055+811.55+752.647ZM812+711.528L807.63+700.087L784.68+700.087L780.31+711.528L768.58+711.528L790.61+658.126L801.91+658.126L824.01+711.528L812+711.528ZM788.35+690.699L804.02+690.699L796.18+670.258L788.35+690.699Z" opacity="1" fill="#ed1c24"/>
<path d="M1211.65+1093.38L1203.81+1113.82L1195.97+1093.38L1211.65+1093.38Z" opacity="1" fill="#ed1c24"/>
<path d="M1211.65+1093.38L1203.81+1113.82L1195.97+1093.38L1211.65+1093.38Z" opacity="1" fill="#ed1c24"/>
<path d="M1000.07+812.532L1000.07+1237.73L1246.44+1135.75L1246.44+710.556L1000.07+812.532ZM1188.45+1031.45C1191.42+1028.24+1195.68+1027.33+1199.43+1028.62L1194.77+1019.9L1212.87+1019.9L1208.21+1028.62C1211.97+1027.33+1216.23+1028.24+1219.2+1031.45C1223.44+1036.04+1223.44+1043.46+1219.2+1048.04L1203.82+1064.66L1188.45+1048.04C1184.2+1043.45+1184.2+1036.03+1188.45+1031.45ZM1209.39+1125.96L1198.09+1125.96L1175.99+1072.55L1187.99+1072.55L1192.36+1084L1215.31+1084L1219.68+1072.55L1231.41+1072.55L1209.39+1125.96ZM1203.81+1113.82L1211.65+1093.38L1195.98+1093.38L1203.81+1113.82Z" opacity="1" fill="#ed1c24"/>
<path d="M848.17+976.564L1000+812.532L1000+976.564L848.17+976.564Z" opacity="1" fill="#ffffff"/>
<path d="M1151.83+976.564L1000+1140.59L1000+976.564L1151.83+976.564Z" opacity="1" fill="#ffffff"/>
<path d="M533.22+1396.51C533.22+1403.62+530+1407.18+523.56+1407.18L497.95+1407.18L497.95+1448.58L482.14+1448.58L482.14+1334.32L523.56+1334.32C530.01+1334.32+533.22+1337.82+533.22+1344.83C533.22+1344.83+533.22+1396.51+533.22+1396.51ZM517.27+1348.99L497.94+1348.99L497.94+1392.49L517.27+1392.49L517.27+1348.99Z" opacity="1" fill="#ffffff"/>
<path d="M614.37+1438.13C614.37+1445.09+611.17+1448.57+604.78+1448.57L570.44+1448.57C564.18+1448.57+561.05+1445.09+561.05+1438.13L561.05+1344.82C561.05+1337.81+564.18+1334.31+570.44+1334.31L604.78+1334.31C611.17+1334.31+614.37+1337.81+614.37+1344.82L614.37+1438.13ZM598.55+1348.99L576.86+1348.99L576.86+1433.89L598.55+1433.89L598.55+1348.99Z" opacity="1" fill="#ffffff"/>
<path d="M696.99+1448.58L679.55+1448.58L659.49+1397.62L659.49+1448.58L643.67+1448.58L643.67+1334.32L659.49+1334.32L659.49+1382.65L677.06+1334.32L694.35+1334.32L694.35+1335.13L672.87+1389.37L696.99+1448.58Z" opacity="1" fill="#ffffff"/>
<path d="M763.81+1448.58L719.95+1448.58L719.95+1334.32L763.41+1334.32L763.41+1349.43L735.77+1349.43L735.77+1382.79L759.55+1382.79L759.55+1397.62L735.77+1397.62L735.77+1433.46L763.81+1433.46L763.81+1448.58Z" opacity="1" fill="#ffffff"/>
<path d="M967.43+1438.14C967.43+1445.1+964.24+1448.58+957.84+1448.58L926.01+1448.58C919.65+1448.58+916.48+1445.1+916.48+1438.14L916.48+1410.9L932.3+1410.9L932.3+1434.2L951.63+1434.2L951.63+1411.79L919.93+1379.37C917.64+1376.98+916.49+1373.96+916.49+1370.25L916.49+1344.84C916.49+1337.83+919.66+1334.33+926.02+1334.33L957.85+1334.33C964.25+1334.33+967.44+1337.78+967.44+1344.7L967.44+1370.25L951.63+1370.25L951.63+1348.7L932.3+1348.7L932.3+1369.35L963.99+1401.62C966.29+1403.96+967.43+1407.06+967.43+1410.89C967.43+1410.89+967.43+1438.14+967.43+1438.14Z" opacity="1" fill="#ffffff"/>
<path d="M1074.66+1334.32L1059.19+1448.72L1043.72+1448.72L1034.26+1383.96C1034.17+1381.63+1033.99+1378.15+1033.72+1373.52C1033.72+1375.86+1033.54+1379.34+1033.18+1383.96L1023.78+1448.72L1008.24+1448.72L992.77+1334.32L1008.79+1334.32L1016.97+1402.07C1017.11+1404.4+1017.29+1407.88+1017.51+1412.51C1017.55+1410.17+1017.76+1406.69+1018.12+1402.07L1027.24+1334.32L1040.22+1334.32L1049.34+1402.07C1049.47+1404.4+1049.68+1407.88+1049.95+1412.51C1049.99+1410.17+1050.17+1406.69+1050.49+1402.07L1058.67+1334.32L1074.66+1334.32Z" opacity="1" fill="#ffffff"/>
<path d="M1153.71+1448.58L1138.04+1448.58L1134.86+1426.89L1115.06+1426.89L1111.89+1448.58L1096.27+1448.58L1096.27+1448.28L1116.75+1334.18L1133.37+1334.18L1153.71+1448.58ZM1132.62+1412.22L1124.92+1360.67L1117.15+1412.22L1132.62+1412.22Z" opacity="1" fill="#ffffff"/>
<path d="M1230.26+1396.51C1230.26+1403.62+1227.04+1407.18+1220.6+1407.18L1194.99+1407.18L1194.99+1448.58L1179.18+1448.58L1179.18+1334.32L1220.6+1334.32C1227.04+1334.32+1230.26+1337.82+1230.26+1344.83C1230.26+1344.83+1230.26+1396.51+1230.26+1396.51ZM1214.31+1348.99L1194.98+1348.99L1194.98+1392.49L1214.31+1392.49L1214.31+1348.99Z" opacity="1" fill="#ffffff"/>
<path d="M1309.18+1396.51C1309.18+1403.62+1305.96+1407.18+1299.51+1407.18L1273.9+1407.18L1273.9+1448.58L1258.08+1448.58L1258.08+1334.32L1299.5+1334.32C1305.95+1334.32+1309.17+1337.82+1309.17+1344.83L1309.17+1396.51L1309.18+1396.51ZM1293.23+1348.99L1273.9+1348.99L1273.9+1392.49L1293.23+1392.49L1293.23+1348.99Z" opacity="1" fill="#ffffff"/>
<path d="M1337.27+1334.32L1353.08+1334.32L1353.08+1334.32L1353.08+1448.58L1353.08+1448.58L1337.27+1448.58L1337.27+1448.58L1337.27+1334.32L1337.27+1334.32Z" opacity="1" fill="#ffffff"/>
<path d="M1436.26+1448.58L1422.41+1448.58L1397.07+1376.66C1397.74+1380.17+1398.09+1382.91+1398.09+1384.91L1398.09+1448.58L1382.68+1448.58L1382.68+1334.32L1396.53+1334.32L1421.87+1404.77C1421.2+1401.26+1420.86+1398.51+1420.86+1396.51L1420.86+1334.32L1436.27+1334.32L1436.27+1448.58L1436.26+1448.58Z" opacity="1" fill="#ffffff"/>
<path d="M1517.87+1438.14C1517.87+1445.1+1514.65+1448.58+1508.2+1448.58L1474.95+1448.58C1468.69+1448.58+1465.56+1445.1+1465.56+1438.14L1465.56+1344.83C1465.56+1337.82+1468.76+1334.32+1475.15+1334.32L1508.19+1334.32C1514.64+1334.32+1517.86+1337.82+1517.86+1344.83L1517.86+1369.21L1501.98+1369.21L1501.98+1348.99L1481.36+1348.99L1481.36+1433.89L1501.98+1433.89L1501.98+1401.93L1490.22+1401.93L1490.22+1387.4L1517.86+1387.4L1517.86+1438.14L1517.87+1438.14Z" opacity="1" fill="#ffffff"/>
</g>
</g>
</svg>
